<?xml version="1.0" standalone="no"?><!DOCTYPE svg PUBLIC "-//W3C//DTD SVG 1.1//EN" "http://www.w3.org/Graphics/SVG/1.1/DTD/svg11.dtd"><svg t="1555128001284" class="icon" style="" viewBox="0 0 1024 1024" version="1.1" xmlns="http://www.w3.org/2000/svg" p-id="6671" xmlns:xlink="http://www.w3.org/1999/xlink" width="32" height="32"><defs><style type="text/css"></style></defs><path d="M512 128c211.2 0 384 172.8 384 384s-172.8 384-384 384-384-172.8-384-384S300.8 128 512 128M512 0C230.4 0 0 230.4 0 512s230.4 512 512 512 512-230.4 512-512S793.6 0 512 0L512 0z" p-id="6672" data-spm-anchor-id="a313x.7781069.0.i14" class="selected" fill="#40dbc3"></path><path d="M256 448l512 0 0 128-512 0 0-128Z" p-id="6673" data-spm-anchor-id="a313x.7781069.0.i13" class="selected" fill="#40dbc3"></path><path d="M448 256l128 0 0 512-128 0 0-512Z" p-id="6674" data-spm-anchor-id="a313x.7781069.0.i12" class="selected" fill="#40dbc3"></path></svg>