<?xml version="1.0" standalone="no"?><!DOCTYPE svg PUBLIC "-//W3C//DTD SVG 1.1//EN" "http://www.w3.org/Graphics/SVG/1.1/DTD/svg11.dtd"><svg t="1555127706426" class="icon" style="" viewBox="0 0 1024 1024" version="1.1" xmlns="http://www.w3.org/2000/svg" p-id="4641" xmlns:xlink="http://www.w3.org/1999/xlink" width="16" height="16"><defs><style type="text/css"></style></defs><path d="M371.3 376.1H400V830h-28.7zM497.6 376.1h28.7V830h-28.7zM624 376.1h28.7V830H624z" fill="#40dbc3" p-id="4642"></path><path d="M834.7 188.1H662.2c-17.1-67.7-78.7-116.2-149.1-116.2-70.9 0-132 48.3-149.1 116.2H189.3v109.8H257v654.2h510.2V297.9h67.7V188.1z m-321.6-87.5c54.8 0 103.1 36.1 119.3 87.4h-44c-12.2-30.4-42.1-51.4-75.8-51.4-33.9 0-63.5 20.9-75.7 51.4h-43c16.1-51.4 64-87.4 119.2-87.4z m42.6 87.5h-86.3c9.6-13.7 25.4-22.6 43.2-22.6 17.5-0.1 33.4 8.8 43.1 22.6z m182.6 735.3H285.7V297.9h452.7v625.5zM806 269.1H218v-52.3h588v52.3z" fill="#40dbc3" p-id="4643"></path></svg>